<svg id="Layer_1" data-name="Layer 1" xmlns="http://www.w3.org/2000/svg" viewBox="0 0 404.25 136"><title>Name-lockup-vert-v1</title><path d="M24.78,6.82h3.53l20.23,49H45.37L40.12,43.25H12L6.49,55.78H3.25ZM13,40.59H39.18L26.51,10.13Z"/><path d="M59.27,6.82H77.2c14.47.07,25.27,8.64,25.27,24.55S91.67,55.78,77.2,55.78H59.27ZM62.43,9.7V52.9H77.12c12.82,0,22.11-7.56,22.11-21.53S89.94,9.77,77.12,9.7Z"/><path d="M116,6.82h20.88c8.57,0,16.49,4.68,16.49,15.27,0,9.36-7.63,15-16,15h-2.16c4.9,5,11.81,16.49,19.59,16.49a15.86,15.86,0,0,0,6.63-1.73l.58,2.74a17.42,17.42,0,0,1-7.49,1.87c-10.73,0-18.58-16.06-23.62-19.37H119.17V55.78H116Zm3.17,2.88V34.4H137.1c6.91,0,13-4.46,13-12.24,0-8.57-6.12-12.46-13-12.46Z"/><path d="M170.65,6.82h3.17v49h-3.17Z"/><path d="M190.59,55.78v-49h36.65v3H193.62V28.71H222v2.88H193.62V52.83h33.63v3Z"/><path d="M244.3,11.93V55.78h-3.17v-49H244l37.15,44.07V6.82h3.17v49h-2.88Z"/><path d="M304.35,11.93V55.78h-3.17v-49h2.88l37.15,44.07V6.82h3.17v49h-2.88Z"/><path d="M361.23,55.78v-49h36.65v3H364.26V28.71h28.37v2.88H364.26V52.83h33.63v3Z"/><path d="M10,76.82H27.95c14.47.07,25.27,8.64,25.27,24.55s-10.8,24.41-25.27,24.41H10Zm3.17,2.88v43.2H27.88c12.82,0,22.11-7.56,22.11-21.53S40.69,79.77,27.88,79.7Z"/><path d="M68.34,125.78v-49H105v3H71.36V98.71H99.73v2.88H71.36v21.24H105v3Z"/><path d="M120.47,76.82h16.27c9.79,0,16,4,16,12.53,0,5.76-3.67,9.43-9.22,11,8.06,1.08,13.1,5,13.1,12.74s-5.47,12.67-16.56,12.67H120.47Zm15.41,22.39c7.92,0,13.61-3.17,13.61-9.65,0-7-5.11-9.86-13-9.86H123.63V99.21Zm4,23.69c8.78,0,13.47-3.74,13.47-10,0-7.49-5.9-10.8-15.27-10.8h-14.4V122.9Z"/><path d="M171.44,76.82h3.17v49h-3.17Z"/><path d="M235.81,100.87v19.44c-4.54,3.46-12.67,6.19-20.16,6.19-14.47,0-26.07-9.36-26.07-25.13S201.18,76.1,215.65,76.1a25.88,25.88,0,0,1,18.29,7l-1.73,2.45a23.36,23.36,0,0,0-16.49-6.41c-12.67,0-22.9,8.21-22.9,22.25s10.22,22.11,23,22.11c6.41,0,13-2.09,16.85-4.9V103.75H213.56v-2.88Z"/><path d="M266.34,76.82h3.53l20.23,49h-3.17l-5.26-12.53H253.59L248,125.78h-3.24ZM254.6,110.59h26.14L268.07,80.13Z"/><path d="M302.41,76.82h20.88c8.57,0,16.49,4.68,16.49,15.27,0,9.36-7.63,15-16,15h-2.16c4.9,5,11.81,16.49,19.59,16.49a15.87,15.87,0,0,0,6.62-1.73l.58,2.74a17.42,17.42,0,0,1-7.49,1.87c-10.73,0-18.58-16.06-23.62-19.37H305.58v18.65h-3.17Zm3.17,2.88v24.7h17.93c6.91,0,13-4.46,13-12.24,0-8.57-6.12-12.46-13-12.46Z"/><path d="M358.64,125.78v-49h36.65v3H361.66V98.71H390v2.88H361.66v21.24h33.63v3Z"/></svg>